<?xml version="1.0" encoding="UTF-8" standalone="no"?>
<svg
   xmlns:dc="http://purl.org/dc/elements/1.1/"
   xmlns:cc="http://creativecommons.org/ns#"
   xmlns:rdf="http://www.w3.org/1999/02/22-rdf-syntax-ns#"
   xmlns:svg="http://www.w3.org/2000/svg"
   xmlns="http://www.w3.org/2000/svg"
   viewBox="0 0 15.972 21.333332"
   height="21.333332"
   width="15.972"
   xml:space="preserve"
   id="svg2"
   version="1.1"><metadata
     id="metadata8"><rdf:RDF><cc:Work
         rdf:about=""><dc:format>image/svg+xml</dc:format><dc:type
           rdf:resource="http://purl.org/dc/dcmitype/StillImage" /></cc:Work></rdf:RDF></metadata><defs
     id="defs6"><clipPath
       id="clipPath18"
       clipPathUnits="userSpaceOnUse"><path
         id="path16"
         d="M 0,16 H 11.979 V 0 H 0 Z" /></clipPath></defs><g
     transform="matrix(1.3333333,0,0,-1.3333333,0,21.333333)"
     id="g10"><g
       id="g12"><g
         clip-path="url(#clipPath18)"
         id="g14"><g
           transform="translate(7.1928,14.4082)"
           id="g20"><path
             id="path22"
             style="fill:#000;fill-opacity:1;fill-rule:nonzero;stroke:none"
             d="M 0,0 C 0,0.161 0.012,0.307 -0.003,0.449 -0.022,0.635 -0.173,0.78 -0.358,0.783 -0.914,0.79 -1.47,0.789 -2.026,0.783 -2.196,0.781 -2.358,0.642 -2.377,0.479 -2.396,0.323 -2.381,0.163 -2.381,0 Z m -1.182,-2.408 h 4.718 c 0.309,0 0.469,0.16 0.473,0.47 0.003,0.203 -0.009,0.407 0.003,0.609 0.02,0.314 -0.161,0.525 -0.519,0.523 -1.922,-0.01 -3.843,-0.005 -5.764,-0.005 -1.225,0 -2.448,0 -3.672,-0.001 -0.284,0 -0.444,-0.161 -0.446,-0.443 -0.002,-0.219 -10e-4,-0.437 0,-0.656 0,-0.35 0.15,-0.497 0.505,-0.497 z m 4.39,-0.816 h -8.795 c -0.003,-0.058 -0.006,-0.104 -0.006,-0.15 -0.001,-3.244 -0.001,-6.488 0,-9.732 0,-0.352 0.15,-0.5 0.504,-0.5 h 7.78 c 0.375,0 0.517,0.142 0.517,0.516 v 9.686 z M -0.229,1.592 C 0.006,1.524 0.236,1.447 0.418,1.272 0.654,1.046 0.788,0.772 0.801,0.444 0.807,0.301 0.802,0.156 0.802,-0.006 h 0.202 c 0.844,0 1.687,0.003 2.531,-0.001 0.516,-0.002 0.912,-0.217 1.15,-0.686 C 4.725,-0.771 4.769,-0.858 4.77,-0.942 4.778,-1.388 4.806,-1.837 4.762,-2.278 4.726,-2.644 4.479,-2.912 4.146,-3.071 4.028,-3.128 4.008,-3.196 4.008,-3.31 c 0.002,-3.253 0.001,-6.506 0.003,-9.76 0,-0.355 -0.076,-0.679 -0.323,-0.95 -0.199,-0.216 -0.454,-0.321 -0.73,-0.388 h -8.312 c -0.18,0.077 -0.378,0.128 -0.536,0.236 -0.367,0.253 -0.502,0.627 -0.501,1.068 0.003,3.264 0.001,6.53 0.004,9.794 0,0.116 -0.024,0.181 -0.14,0.238 -0.37,0.18 -0.604,0.485 -0.643,0.896 -0.033,0.346 -0.025,0.697 -0.01,1.044 0.006,0.152 0.051,0.312 0.118,0.447 0.232,0.465 0.629,0.676 1.14,0.678 0.849,0.004 1.698,0.001 2.547,0.001 h 0.18 c 0,0.126 -0.001,0.235 10e-4,0.343 0.004,0.335 0.104,0.634 0.337,0.882 0.196,0.209 0.449,0.31 0.721,0.373 z" /></g><g
           transform="translate(6.4008,5.9834)"
           id="g24"><path
             id="path26"
             style="fill:#000;fill-opacity:1;fill-rule:nonzero;stroke:none"
             d="m 0,0 c 0,-1.302 -0.001,-2.604 0.001,-3.905 0,-0.16 -0.035,-0.298 -0.171,-0.396 -0.238,-0.171 -0.561,-0.046 -0.618,0.242 -0.013,0.067 -0.013,0.135 -0.013,0.203 -0.001,2.583 -0.001,5.165 0.001,7.748 0,0.091 0.005,0.19 0.036,0.275 C -0.7,4.339 -0.503,4.442 -0.337,4.41 -0.152,4.375 -0.012,4.219 -0.002,4.03 0.004,3.916 0,3.801 0,3.687 Z" /></g><g
           transform="translate(7.9979,5.999)"
           id="g28"><path
             id="path30"
             style="fill:#000;fill-opacity:1;fill-rule:nonzero;stroke:none"
             d="M 0,0 V 3.874 C 0,4.202 0.152,4.401 0.402,4.401 0.652,4.402 0.806,4.203 0.806,3.876 V -3.872 C 0.806,-4.2 0.654,-4.399 0.404,-4.399 0.153,-4.4 0,-4.201 0,-3.874 Z" /></g><g
           transform="translate(3.9979,5.9912)"
           id="g32"><path
             id="path34"
             style="fill:#000;fill-opacity:1;fill-rule:nonzero;stroke:none"
             d="m 0,0 c 0,-1.307 -0.001,-2.613 0.001,-3.92 0.001,-0.169 -0.041,-0.307 -0.187,-0.402 -0.243,-0.158 -0.565,-0.01 -0.602,0.278 -0.007,0.057 -0.007,0.114 -0.007,0.172 0,2.588 0,5.176 -0.001,7.763 -0.001,0.179 0.02,0.342 0.188,0.45 C -0.36,4.5 -0.03,4.342 -0.003,4.046 0.002,3.989 0,3.932 0,3.874 Z" /></g></g></g></g></svg>