<?xml version="1.0" encoding="UTF-8" standalone="no"?>
<svg
   xmlns:dc="http://purl.org/dc/elements/1.1/"
   xmlns:cc="http://creativecommons.org/ns#"
   xmlns:rdf="http://www.w3.org/1999/02/22-rdf-syntax-ns#"
   xmlns:svg="http://www.w3.org/2000/svg"
   xmlns="http://www.w3.org/2000/svg"
   viewBox="0 0 31.840799 27.825333"
   height="27.825333"
   width="31.840799"
   xml:space="preserve"
   id="svg2"
   version="1.1"><metadata
     id="metadata8"><rdf:RDF><cc:Work
         rdf:about=""><dc:format>image/svg+xml</dc:format><dc:type
           rdf:resource="http://purl.org/dc/dcmitype/StillImage" /></cc:Work></rdf:RDF></metadata><defs
     id="defs6"><clipPath
       id="clipPath18"
       clipPathUnits="userSpaceOnUse"><path
         id="path16"
         d="M 0,20.869 H 23.881 V 0 H 0 Z" /></clipPath></defs><g
     transform="matrix(1.3333333,0,0,-1.3333333,0,27.825333)"
     id="g10"><g
       id="g12"><g
         clip-path="url(#clipPath18)"
         id="g14"><g
           transform="translate(11.9465,17.0368)"
           id="g20"><path
             id="path22"
             style="fill:#878787;fill-opacity:1;fill-rule:nonzero;stroke:none"
             d="m 0,0 c -0.351,0.313 -0.685,0.625 -1.033,0.921 -1.571,1.337 -3.363,1.757 -5.353,1.218 -2.401,-0.649 -4.105,-2.929 -4.059,-5.413 0.027,-1.52 0.582,-2.831 1.666,-3.906 2.435,-2.413 4.874,-4.823 7.311,-7.234 0.31,-0.306 0.615,-0.617 0.932,-0.916 0.32,-0.303 0.746,-0.3 1.07,-0.003 0.12,0.11 0.234,0.228 0.35,0.343 2.669,2.641 5.365,5.256 7.997,7.934 1.505,1.532 1.928,3.42 1.307,5.475 C 9.014,2.305 4.135,3.649 1.069,0.956 0.714,0.644 0.364,0.326 0,0 m -11.946,-3.644 v 0.887 c 0.014,0.059 0.032,0.118 0.043,0.178 0.09,0.464 0.139,0.94 0.274,1.391 1.455,4.865 7.513,6.629 11.441,3.34 C -0.125,2.099 -0.061,2.048 0,1.998 0.046,2.033 0.07,2.051 0.095,2.071 1.826,3.527 3.812,4.074 6.046,3.728 9.297,3.225 11.856,0.314 11.932,-2.991 11.979,-5.02 11.287,-6.773 9.847,-8.206 7.119,-10.921 4.378,-13.624 1.636,-16.325 1.439,-16.518 1.199,-16.676 0.956,-16.806 0.749,-16.917 0.507,-16.962 0.279,-17.037 H -0.28 c -0.035,0.015 -0.069,0.038 -0.105,0.044 -0.483,0.081 -0.891,0.304 -1.238,0.647 -2.734,2.705 -5.469,5.408 -8.202,8.114 -1.004,0.993 -1.662,2.178 -1.957,3.559 -0.072,0.339 -0.111,0.686 -0.164,1.029" /></g></g></g></g></svg>