<?xml version="1.0" encoding="UTF-8" standalone="no"?>
<svg
   xmlns:dc="http://purl.org/dc/elements/1.1/"
   xmlns:cc="http://creativecommons.org/ns#"
   xmlns:rdf="http://www.w3.org/1999/02/22-rdf-syntax-ns#"
   xmlns:svg="http://www.w3.org/2000/svg"
   xmlns="http://www.w3.org/2000/svg"
   viewBox="0 0 99.100929 85.425201"
   height="85.425201"
   width="99.100929"
   xml:space="preserve"
   id="svg2"
   version="1.1"><metadata
     id="metadata8"><rdf:RDF><cc:Work
         rdf:about=""><dc:format>image/svg+xml</dc:format><dc:type
           rdf:resource="http://purl.org/dc/dcmitype/StillImage" /></cc:Work></rdf:RDF></metadata><defs
     id="defs6"><clipPath
       id="clipPath18"
       clipPathUnits="userSpaceOnUse"><path
         id="path16"
         d="M 0,64.069 H 74.326 V 0 H 0 Z" /></clipPath></defs><g
     transform="matrix(1.3333333,0,0,-1.3333333,0,85.4252)"
     id="g10"><g
       id="g12"><g
         clip-path="url(#clipPath18)"
         id="g14"><g
           transform="translate(45.4465,22.4805)"
           id="g20"><path
             id="path22"
             style="fill:#56497c;fill-opacity:1;fill-rule:nonzero;stroke:none"
             d="m 0,0 c 0,0 1.337,15.144 3.902,17.208 1.687,1.357 8.35,2.747 8.35,2.747 v 1.744 c 0,0 -9.279,-1.554 -12.252,-1.554 -2.973,0 -12.253,1.554 -12.253,1.554 v -1.744 c 0,0 6.055,-1.001 8.35,-2.747 C -1.172,15.13 0,0 0,0" /></g><g
           transform="translate(72.3899,22.4713)"
           id="g24"><path
             id="path26"
             style="fill:#56497c;fill-opacity:1;fill-rule:nonzero;stroke:none"
             d="m 0,0 c -1.487,-5.046 -3.052,-8.86 -4.694,-11.441 -1.643,-2.581 -3.599,-4.469 -5.868,-5.662 -1.131,-0.596 -2.406,-1.042 -3.821,-1.34 -0.007,-0.002 -0.014,-0.003 -0.021,-0.004 -1.275,-0.267 -2.68,-0.397 -4.184,-0.423 -1.77,0.034 -3.478,0.418 -4.453,1.561 -2.312,2.714 -3.704,14.514 -3.883,16.107 l 0.003,0.182 c 0,0 -0.005,-0.041 -0.012,-0.103 -0.006,0.062 -0.011,0.103 -0.011,0.103 0,0 -0.002,-0.104 -0.01,-0.291 -0.223,-1.954 -1.605,-13.339 -3.87,-15.998 -0.748,-0.877 -1.93,-1.305 -3.24,-1.473 -4.505,-0.293 -10.184,-0.068 -11.161,0.359 -1.096,0.469 -1.829,1.153 -2.201,2.053 -0.372,0.899 -0.557,2.973 -0.557,6.22 v 40.776 c 0,3.207 0.176,5.182 0.528,5.926 0.469,1.094 1.115,1.857 1.936,2.288 1.134,0.665 2.621,0.998 4.459,0.998 h 2.816 v 1.76 H -72.39 v -1.76 h 2.112 c 1.799,0 3.227,-0.314 4.283,-0.94 1.057,-0.626 1.75,-1.34 2.083,-2.141 0.332,-0.802 0.499,-2.845 0.499,-6.131 V -11.5 c 0,-3.208 -0.176,-5.202 -0.529,-5.984 -0.43,-1.056 -1.056,-1.8 -1.877,-2.23 -1.135,-0.665 -2.621,-0.997 -4.459,-0.997 h -2.112 v -1.761 H -0.47 L 1.936,0 Z" /></g><g
           transform="translate(37.9133,57.9673)"
           id="g28"><path
             id="path30"
             style="fill:#b7e184;fill-opacity:1;fill-rule:nonzero;stroke:none"
             d="m 0,0 c 0,-4.206 3.262,-7.615 7.286,-7.615 4.024,0 7.285,3.409 7.285,7.615 0,0 -1.401,1.806 -4.297,-0.342 0,0 0.655,3.515 -2.988,6.444 C 3.643,3.173 4.297,-0.342 4.297,-0.342 1.401,1.806 0,0 0,0 c 0,-4.206 3.262,-7.615 7.286,-7.615 4.024,0 7.285,3.409 7.285,7.615" /></g></g></g></g></svg>