<?xml version="1.0" encoding="UTF-8" standalone="no"?>
<svg
   xmlns:dc="http://purl.org/dc/elements/1.1/"
   xmlns:cc="http://creativecommons.org/ns#"
   xmlns:rdf="http://www.w3.org/1999/02/22-rdf-syntax-ns#"
   xmlns:svg="http://www.w3.org/2000/svg"
   xmlns="http://www.w3.org/2000/svg"
   viewBox="0 0 232.88667 144.85867"
   height="144.85867"
   width="232.88667"
   xml:space="preserve"
   id="svg2"
   version="1.1"><metadata
     id="metadata8"><rdf:RDF><cc:Work
         rdf:about=""><dc:format>image/svg+xml</dc:format><dc:type
           rdf:resource="http://purl.org/dc/dcmitype/StillImage" /></cc:Work></rdf:RDF></metadata><defs
     id="defs6"><clipPath
       id="clipPath18"
       clipPathUnits="userSpaceOnUse"><path
         id="path16"
         d="M 0,108.644 H 174.665 V 0 H 0 Z" /></clipPath></defs><g
     transform="matrix(1.3333333,0,0,-1.3333333,0,144.85867)"
     id="g10"><g
       id="g12"><g
         clip-path="url(#clipPath18)"
         id="g14"><g
           transform="translate(5.2134,1.2507)"
           id="g20"><path
             id="path22"
             style="fill:#56497c;fill-opacity:1;fill-rule:nonzero;stroke:none"
             d="m 0,0 h 4.251 c 1.084,0 1.935,0.208 2.554,0.625 0.618,0.417 1.114,1.174 1.49,2.271 L 8.566,2.813 7.44,-1.042 H -5.213 v 0.291 h 0.375 c 0.611,-0.014 1.073,0.105 1.386,0.355 0.312,0.25 0.469,0.653 0.469,1.208 v 11.754 c -0.015,0.542 -0.174,0.935 -0.48,1.178 -0.306,0.243 -0.764,0.372 -1.375,0.386 h -0.375 v 0.292 H 2.23 V 14.13 H 1.855 C 1.229,14.116 0.764,13.987 0.458,13.744 0.153,13.501 0,13.108 0,12.566 Z" /></g><g
           transform="translate(30.5728,0.8963)"
           id="g24"><path
             id="path26"
             style="fill:#56497c;fill-opacity:1;fill-rule:nonzero;stroke:none"
             d="m 0,0 c 1.473,0 2.644,0.649 3.512,1.948 0.868,1.299 1.302,2.97 1.302,5.013 0,2.223 -0.438,3.967 -1.313,5.23 -0.875,1.265 -1.98,1.897 -3.314,1.897 -1.458,0 -2.625,-0.65 -3.5,-1.948 -0.876,-1.299 -1.313,-2.97 -1.313,-5.012 0,-2.141 0.423,-3.863 1.271,-5.169 C -2.508,0.652 -1.389,0 0,0 m -0.125,-0.896 c -2.084,0 -4.328,0.778 -5.682,2.333 -1.355,1.557 -2.032,3.447 -2.032,5.669 -0.015,2.223 0.701,4.092 2.146,5.607 1.445,1.514 3.797,2.271 6.006,2.271 2.084,0 4.328,-0.767 5.682,-2.302 C 7.35,11.146 8.027,9.246 8.027,6.981 8.027,4.647 7.287,2.751 5.808,1.292 4.328,-0.167 2.001,-0.896 -0.125,-0.896" /></g><g
           transform="translate(53.0771,14.6931)"
           id="g28"><path
             id="path30"
             style="fill:#56497c;fill-opacity:1;fill-rule:nonzero;stroke:none"
             d="m 0,0 v -6.294 c 0.097,-0.015 0.205,-0.021 0.323,-0.021 h 0.635 c 1.237,0 2.227,0.294 2.97,0.885 0.743,0.591 1.115,1.408 1.115,2.45 0,0.971 -0.319,1.75 -0.959,2.334 C 3.445,-0.062 2.612,0.229 1.584,0.229 1.292,0.229 1.018,0.208 0.76,0.166 0.503,0.125 0.25,0.069 0,0 m -5.214,0.979 h 7.548 c 1.736,0 3.043,-0.316 3.918,-0.948 0.875,-0.633 1.313,-1.623 1.313,-2.969 0,-1.015 -0.334,-1.891 -1.001,-2.626 C 5.898,-6.302 5.001,-6.767 3.876,-6.961 L 8.107,-12.4 c 0.569,-0.738 1.049,-1.216 1.438,-1.439 0.389,-0.223 0.84,-0.341 1.354,-0.354 v -0.291 H 6.669 L 1.333,-7.19 H 0 v -5.44 c -0.014,-0.556 0.135,-0.955 0.448,-1.198 0.312,-0.243 0.781,-0.365 1.406,-0.365 H 2.23 v -0.291 h -7.444 v 0.291 h 0.376 c 0.61,-0.014 1.073,0.104 1.385,0.354 0.313,0.25 0.469,0.653 0.469,1.209 v 11.754 c -0.014,0.542 -0.174,0.935 -0.479,1.178 -0.306,0.243 -0.765,0.372 -1.375,0.385 h -0.376 z" /></g><g
           transform="translate(78.6655,11.9832)"
           id="g32"><path
             id="path34"
             style="fill:#56497c;fill-opacity:1;fill-rule:nonzero;stroke:none"
             d="m 0,0 -2.5,-5.772 h 5.001 z m -7.273,-11.774 v 0.291 c 0.417,0.042 0.774,0.229 1.073,0.563 0.299,0.333 0.608,0.847 0.928,1.542 L 0.779,3.897 H 1.25 L 7.148,-9.378 c 0.375,-0.876 0.698,-1.432 0.969,-1.667 0.271,-0.237 0.705,-0.383 1.302,-0.438 v -0.291 H 2.793 v 0.291 c 0.541,0.084 0.937,0.198 1.188,0.343 0.25,0.147 0.375,0.345 0.375,0.595 0,0.18 -0.014,0.337 -0.042,0.469 -0.028,0.132 -0.069,0.267 -0.125,0.406 l -1.271,2.959 h -5.835 l -1.272,-2.938 c -0.139,-0.32 -0.215,-0.521 -0.229,-0.605 -0.014,-0.083 -0.021,-0.166 -0.021,-0.25 0,-0.319 0.149,-0.566 0.448,-0.739 0.299,-0.174 0.678,-0.254 1.136,-0.24 v -0.291 z" /></g><g
           transform="translate(104.6455,15.6726)"
           id="g36"><path
             id="path38"
             style="fill:#56497c;fill-opacity:1;fill-rule:nonzero;stroke:none"
             d="M 0,0 H 7.443 V -0.292 H 7.068 C 6.443,-0.306 5.978,-0.435 5.672,-0.678 5.366,-0.921 5.214,-1.313 5.214,-1.855 v -11.754 c -0.015,-0.556 0.135,-0.955 0.447,-1.199 0.313,-0.243 0.782,-0.365 1.407,-0.365 h 0.375 v -0.291 H 0 v 0.291 h 0.375 c 0.611,-0.014 1.073,0.105 1.386,0.355 0.312,0.25 0.468,0.653 0.468,1.209 V -1.855 C 2.216,-1.313 2.056,-0.921 1.751,-0.678 1.444,-0.435 0.986,-0.306 0.375,-0.292 H 0 Z" /></g><g
           transform="translate(126.9648,14.6931)"
           id="g40"><path
             id="path42"
             style="fill:#56497c;fill-opacity:1;fill-rule:nonzero;stroke:none"
             d="m 0,0 v -6.294 c 0.098,-0.015 0.205,-0.021 0.323,-0.021 h 0.636 c 1.236,0 2.227,0.294 2.97,0.885 0.743,0.591 1.115,1.408 1.115,2.45 0,0.971 -0.32,1.75 -0.959,2.334 C 3.446,-0.062 2.612,0.229 1.584,0.229 1.292,0.229 1.018,0.208 0.761,0.166 0.504,0.125 0.25,0.069 0,0 m -5.213,0.979 h 7.548 c 1.736,0 3.042,-0.316 3.918,-0.948 0.875,-0.633 1.312,-1.623 1.312,-2.969 0,-1.015 -0.333,-1.891 -1,-2.626 C 5.898,-6.302 5.002,-6.767 3.877,-6.961 l 4.23,-5.439 c 0.57,-0.738 1.049,-1.216 1.439,-1.439 0.389,-0.223 0.84,-0.341 1.354,-0.354 v -0.291 H 6.67 L 1.334,-7.19 H 0 v -5.44 c -0.014,-0.556 0.136,-0.955 0.448,-1.198 0.313,-0.243 0.781,-0.365 1.407,-0.365 H 2.23 v -0.291 h -7.443 v 0.291 h 0.375 c 0.611,-0.014 1.073,0.104 1.386,0.354 0.312,0.25 0.469,0.653 0.469,1.209 v 11.754 c -0.014,0.542 -0.174,0.935 -0.48,1.178 -0.306,0.243 -0.764,0.372 -1.375,0.385 h -0.375 z" /></g><g
           transform="translate(146.7393,15.6726)"
           id="g44"><path
             id="path46"
             style="fill:#56497c;fill-opacity:1;fill-rule:nonzero;stroke:none"
             d="M 0,0 H 7.443 V -0.292 H 7.068 C 6.443,-0.306 5.978,-0.435 5.672,-0.678 5.366,-0.921 5.214,-1.313 5.214,-1.855 v -11.754 c -0.015,-0.556 0.135,-0.955 0.448,-1.199 0.313,-0.243 0.781,-0.365 1.406,-0.365 h 0.375 v -0.291 H 0 v 0.291 h 0.375 c 0.611,-0.014 1.073,0.105 1.386,0.355 0.313,0.25 0.469,0.653 0.469,1.209 V -1.855 C 2.216,-1.313 2.056,-0.921 1.751,-0.678 1.445,-0.435 0.986,-0.306 0.375,-0.292 H 0 Z" /></g><g
           transform="translate(173.1826,15.8806)"
           id="g48"><path
             id="path50"
             style="fill:#56497c;fill-opacity:1;fill-rule:nonzero;stroke:none"
             d="m 0,0 v -4.98 h -0.292 c -0.056,1.111 -0.469,2.069 -1.24,2.876 -0.772,0.805 -1.678,1.208 -2.72,1.208 -0.723,0 -1.32,-0.215 -1.792,-0.646 -0.473,-0.431 -0.709,-0.925 -0.709,-1.479 0,-0.515 0.185,-1.008 0.553,-1.481 0.367,-0.473 1.545,-1.285 3.532,-2.437 1.361,-0.807 2.83,-1.606 3.358,-2.398 0.529,-0.792 0.792,-1.674 0.792,-2.646 0,-1.125 -0.458,-2.053 -1.375,-2.783 -0.917,-0.729 -2.623,-1.101 -4.067,-1.115 -0.667,0.014 -1.334,0.136 -2.001,0.365 -0.667,0.229 -1.125,0.365 -1.376,0.407 H -7.545 -7.69 c -0.196,-0.042 -0.362,-0.129 -0.5,-0.261 -0.14,-0.132 -0.223,-0.302 -0.251,-0.511 h -0.291 l 0.02,5.232 h 0.292 c 0.194,-1.321 0.674,-2.363 1.438,-3.126 0.764,-0.765 1.674,-1.147 2.73,-1.147 0.834,0 1.535,0.201 2.105,0.605 0.57,0.402 0.854,0.971 0.854,1.709 0,0.721 -0.246,1.375 -0.739,1.959 -0.493,0.583 -1.442,1.278 -2.845,2.084 -1.528,0.847 -3.081,1.615 -3.609,2.302 -0.528,0.688 -0.792,1.47 -0.792,2.345 0,1.167 0.43,2.111 1.293,2.834 0.861,0.723 2.448,1.084 3.713,1.084 0.708,0 1.396,-0.122 2.062,-0.364 0.667,-0.244 1.07,-0.365 1.209,-0.365 0.167,0 0.323,0.069 0.469,0.208 0.146,0.139 0.24,0.313 0.281,0.521 z" /></g><g
           transform="translate(95.6162,67.0559)"
           id="g52"><path
             id="path54"
             style="fill:#56497c;fill-opacity:1;fill-rule:nonzero;stroke:none"
             d="m 0,0 c 0,0 1.337,15.144 3.902,17.208 1.687,1.357 8.35,2.747 8.35,2.747 v 1.744 c 0,0 -9.279,-1.554 -12.252,-1.554 -2.973,0 -12.253,1.554 -12.253,1.554 v -1.744 c 0,0 6.055,-1.001 8.35,-2.747 C -1.172,15.13 0,0 0,0" /></g><g
           transform="translate(122.5596,67.0466)"
           id="g56"><path
             id="path58"
             style="fill:#56497c;fill-opacity:1;fill-rule:nonzero;stroke:none"
             d="m 0,0 c -1.487,-5.046 -3.052,-8.86 -4.694,-11.441 -1.643,-2.581 -3.599,-4.469 -5.868,-5.662 -1.131,-0.596 -2.406,-1.042 -3.821,-1.34 -0.007,-0.002 -0.014,-0.003 -0.021,-0.004 -1.275,-0.267 -2.68,-0.397 -4.184,-0.423 -1.77,0.034 -3.478,0.418 -4.453,1.561 -2.312,2.714 -3.704,14.514 -3.883,16.107 l 0.003,0.182 c 0,0 -0.005,-0.041 -0.012,-0.103 -0.006,0.062 -0.011,0.103 -0.011,0.103 0,0 -0.002,-0.104 -0.01,-0.291 -0.223,-1.954 -1.605,-13.339 -3.87,-15.998 -0.748,-0.877 -1.93,-1.305 -3.24,-1.473 -4.505,-0.293 -10.184,-0.068 -11.161,0.359 -1.096,0.469 -1.829,1.153 -2.201,2.053 -0.372,0.899 -0.557,2.973 -0.557,6.22 v 40.776 c 0,3.207 0.176,5.182 0.528,5.926 0.469,1.094 1.115,1.857 1.936,2.288 1.134,0.665 2.621,0.998 4.459,0.998 h 2.816 v 1.76 H -72.39 v -1.76 h 2.112 c 1.799,0 3.227,-0.314 4.283,-0.94 1.057,-0.626 1.75,-1.34 2.083,-2.141 0.332,-0.802 0.499,-2.845 0.499,-6.131 V -11.5 c 0,-3.208 -0.176,-5.202 -0.529,-5.984 -0.43,-1.056 -1.056,-1.8 -1.877,-2.23 -1.135,-0.665 -2.621,-0.997 -4.459,-0.997 h -2.112 v -1.761 H -0.47 L 1.936,0 Z" /></g><g
           transform="translate(88.083,102.5427)"
           id="g60"><path
             id="path62"
             style="fill:#b7e184;fill-opacity:1;fill-rule:nonzero;stroke:none"
             d="m 0,0 c 0,-4.206 3.262,-7.615 7.286,-7.615 4.024,0 7.285,3.409 7.285,7.615 0,0 -1.401,1.806 -4.297,-0.342 0,0 0.655,3.515 -2.988,6.444 C 3.643,3.173 4.297,-0.342 4.297,-0.342 1.401,1.806 0,0 0,0 c 0,-4.206 3.262,-7.615 7.286,-7.615 4.024,0 7.285,3.409 7.285,7.615" /></g><g
           transform="translate(91.5439,8.9939)"
           id="g64"><path
             id="path66"
             style="fill:#b7e184;fill-opacity:1;fill-rule:nonzero;stroke:none"
             d="m 0,0 c 0,-1.667 1.293,-3.019 2.889,-3.019 1.595,0 2.888,1.352 2.888,3.019 0,0 -0.555,0.717 -1.703,-0.135 0,0 0.259,1.394 -1.185,2.555 C 1.444,1.259 1.704,-0.135 1.704,-0.135 0.556,0.717 0,0 0,0 c 0,-1.667 1.293,-3.019 2.889,-3.019 1.595,0 2.888,1.352 2.888,3.019" /></g></g></g></g></svg>