<?xml version="1.0" encoding="UTF-8" standalone="no"?>
<svg
   xmlns:dc="http://purl.org/dc/elements/1.1/"
   xmlns:cc="http://creativecommons.org/ns#"
   xmlns:rdf="http://www.w3.org/1999/02/22-rdf-syntax-ns#"
   xmlns:svg="http://www.w3.org/2000/svg"
   xmlns="http://www.w3.org/2000/svg"
   viewBox="0 0 594.97998 595.17865"
   height="595.17865"
   width="594.97998"
   xml:space="preserve"
   id="svg2"
   version="1.1"><metadata
     id="metadata8"><rdf:RDF><cc:Work
         rdf:about=""><dc:format>image/svg+xml</dc:format><dc:type
           rdf:resource="http://purl.org/dc/dcmitype/StillImage" /></cc:Work></rdf:RDF></metadata><defs
     id="defs6"><clipPath
       id="clipPath18"
       clipPathUnits="userSpaceOnUse"><path
         id="path16"
         d="M 0,446.384 H 446.235 V 0 H 0 Z" /></clipPath></defs><g
     transform="matrix(1.3333333,0,0,-1.3333333,0,595.17867)"
     id="g10"><g
       id="g12"><g
         clip-path="url(#clipPath18)"
         id="g14"><g
           transform="translate(199.1486,204.2263)"
           id="g20"><path
             id="path22"
             style="fill:#5fb25f;fill-opacity:1;fill-rule:nonzero;stroke:none"
             d="M 0,0 C -1.444,2.335 -2.282,4.504 -3.788,6.004 -30.82,32.935 -57.95,59.768 -85,86.681 c -2.529,2.515 -4.361,4.048 -7.681,0.673 -13.088,-13.302 -26.4,-26.384 -39.728,-39.447 -2.445,-2.395 -2.588,-4.134 -0.073,-6.585 5.726,-5.581 11.209,-11.41 16.827,-17.102 37.684,-38.189 75.409,-76.337 113.011,-114.607 3.103,-3.158 5.063,-3.1 8.039,0.064 7.419,7.885 15.118,15.51 22.747,23.198 50.239,50.616 100.49,101.221 150.734,151.833 4.728,4.763 4.724,4.778 0.134,9.328 -12.308,12.198 -24.619,24.395 -36.936,36.585 -4.88,4.831 -4.898,4.834 -9.736,0.042 C 94.809,93.494 57.292,56.312 19.749,19.157 13.746,13.217 7.627,7.393 0,0 m 23.395,-204.227 c -129.987,1.862 -223.613,106.011 -222.534,223.856 1.21,132.263 108.049,223.419 223.689,222.522 C 154.598,241.143 248.02,135.946 247.08,18.469 246.037,-111.837 140.659,-204.382 23.395,-204.227" /></g></g></g></g></svg>