<?xml version="1.0" encoding="UTF-8" standalone="no"?>
<svg
   xmlns:dc="http://purl.org/dc/elements/1.1/"
   xmlns:cc="http://creativecommons.org/ns#"
   xmlns:rdf="http://www.w3.org/1999/02/22-rdf-syntax-ns#"
   xmlns:svg="http://www.w3.org/2000/svg"
   xmlns="http://www.w3.org/2000/svg"
   viewBox="0 0 27.722799 26.6488"
   height="26.6488"
   width="27.722799"
   xml:space="preserve"
   id="svg2"
   version="1.1"><metadata
     id="metadata8"><rdf:RDF><cc:Work
         rdf:about=""><dc:format>image/svg+xml</dc:format><dc:type
           rdf:resource="http://purl.org/dc/dcmitype/StillImage" /></cc:Work></rdf:RDF></metadata><defs
     id="defs6"><clipPath
       id="clipPath18"
       clipPathUnits="userSpaceOnUse"><path
         id="path16"
         d="M 0,19.987 H 20.792 V 0 H 0 Z" /></clipPath></defs><g
     transform="matrix(1.3333333,0,0,-1.3333333,0,26.6488)"
     id="g10"><g
       id="g12"><g
         clip-path="url(#clipPath18)"
         id="g14"><g
           transform="translate(-4e-4,12.3509)"
           id="g20"><path
             id="path22"
             style="fill:#ffa800;fill-opacity:1;fill-rule:nonzero;stroke:none"
             d="M 0,0 C 0.111,0.286 0.327,0.397 0.626,0.426 1.71,0.532 2.792,0.653 3.875,0.768 4.931,0.88 5.986,0.994 7.043,1.1 c 0.149,0.015 0.183,0.116 0.228,0.22 0.871,1.973 1.74,3.946 2.611,5.918 0.149,0.338 0.44,0.49 0.725,0.34 0.129,-0.068 0.247,-0.213 0.309,-0.35 0.835,-1.87 1.672,-3.739 2.476,-5.623 0.159,-0.375 0.355,-0.517 0.755,-0.554 1.974,-0.186 3.944,-0.405 5.915,-0.614 0.087,-0.009 0.174,-0.021 0.261,-0.033 0.212,-0.03 0.364,-0.139 0.437,-0.345 0.073,-0.207 0.021,-0.392 -0.131,-0.539 -0.238,-0.231 -0.486,-0.451 -0.732,-0.675 -1.376,-1.253 -2.751,-2.508 -4.133,-3.755 -0.125,-0.112 -0.148,-0.215 -0.116,-0.367 0.45,-2.122 0.893,-4.246 1.343,-6.368 0.052,-0.242 0.017,-0.451 -0.18,-0.602 -0.209,-0.16 -0.427,-0.118 -0.644,0.009 -1.857,1.084 -3.718,2.164 -5.573,3.251 -0.139,0.081 -0.24,0.087 -0.383,0.003 -1.838,-1.077 -3.68,-2.148 -5.522,-3.218 -0.097,-0.057 -0.203,-0.118 -0.312,-0.138 -0.371,-0.068 -0.657,0.257 -0.577,0.649 0.174,0.84 0.352,1.68 0.529,2.52 0.275,1.309 0.551,2.619 0.83,3.927 0.029,0.134 0,0.221 -0.104,0.315 -1.561,1.413 -3.118,2.83 -4.671,4.25 -0.142,0.13 -0.256,0.29 -0.384,0.435 z" /></g></g></g></g></svg>