<?xml version="1.0" encoding="UTF-8" standalone="no"?>
<svg
   xmlns:dc="http://purl.org/dc/elements/1.1/"
   xmlns:cc="http://creativecommons.org/ns#"
   xmlns:rdf="http://www.w3.org/1999/02/22-rdf-syntax-ns#"
   xmlns:svg="http://www.w3.org/2000/svg"
   xmlns="http://www.w3.org/2000/svg"
   viewBox="0 0 214.744 214.60667"
   height="214.60667"
   width="214.744"
   xml:space="preserve"
   id="svg2"
   version="1.1"><metadata
     id="metadata8"><rdf:RDF><cc:Work
         rdf:about=""><dc:format>image/svg+xml</dc:format><dc:type
           rdf:resource="http://purl.org/dc/dcmitype/StillImage" /></cc:Work></rdf:RDF></metadata><defs
     id="defs6"><clipPath
       id="clipPath18"
       clipPathUnits="userSpaceOnUse"><path
         id="path16"
         d="M 0,160.955 H 161.058 V 0 H 0 Z" /></clipPath></defs><g
     transform="matrix(1.3333333,0,0,-1.3333333,0,214.60667)"
     id="g10"><g
       id="g12"><g
         clip-path="url(#clipPath18)"
         id="g14"><g
           transform="translate(57.5641,92.0596)"
           id="g20"><path
             id="path22"
             style="fill:#000000;fill-opacity:1;fill-rule:nonzero;stroke:none"
             d="M 0,0 C 15.921,0.04 28.769,12.963 28.7,28.867 28.63,44.724 15.816,57.503 -0.034,57.521 -15.946,57.541 -28.834,44.657 -28.823,28.744 -28.811,12.826 -15.909,-0.041 0,0 m 91.986,-46.057 c 0.02,19.059 -15.418,34.519 -34.49,34.538 -19.059,0.02 -34.518,-15.418 -34.538,-34.49 -0.02,-19.059 15.418,-34.518 34.49,-34.538 19.059,-0.019 34.518,15.418 34.538,34.49 M 53.876,-92.06 c -4.343,1.059 -8.894,1.607 -12.993,3.267 -15.987,6.475 -25.718,18.345 -28.721,35.371 -2.27,12.874 0.919,24.577 8.608,35.095 0.276,0.378 0.512,0.784 0.845,1.299 -15.41,7.68 -30.636,7.642 -45.344,-1.145 -14.669,-8.764 -21.698,-22.271 -22.447,-39.272 h -11.388 c 0.057,11.42 3.208,21.892 9.496,31.403 6.303,9.532 14.781,16.55 25.448,21.324 -12.429,9.344 -18.642,21.532 -17.481,36.969 0.835,11.103 5.883,20.221 14.326,27.436 15.918,13.603 40.779,11.829 55.036,-3.295 14.785,-15.683 16.018,-44.839 -6.592,-61.039 2.452,-1.298 4.831,-2.651 7.308,-3.79 0.481,-0.221 1.438,0.258 2.022,0.645 7.32,4.854 15.362,7.469 24.13,7.743 22.321,0.697 42.195,-15.186 46.506,-37.116 4.87,-24.775 -11.458,-49.103 -36.269,-54.017 -1.755,-0.347 -3.532,-0.588 -5.298,-0.878 z" /></g><g
           transform="translate(109.296,23.1084)"
           id="g24"><path
             id="path26"
             style="fill:#000000;fill-opacity:1;fill-rule:nonzero;stroke:none"
             d="m 0,0 v 17.13 h -17.179 v 11.465 h 17.13 V 45.837 H 11.416 V 28.707 H 28.659 V 17.242 H 11.528 L 11.528,0 Z" /></g></g></g></g></svg>