<?xml version="1.0" encoding="UTF-8" standalone="no"?>
<svg
   xmlns:dc="http://purl.org/dc/elements/1.1/"
   xmlns:cc="http://creativecommons.org/ns#"
   xmlns:rdf="http://www.w3.org/1999/02/22-rdf-syntax-ns#"
   xmlns:svg="http://www.w3.org/2000/svg"
   xmlns="http://www.w3.org/2000/svg"
   viewBox="0 0 31.447332 30.933867"
   height="30.933867"
   width="31.447332"
   xml:space="preserve"
   id="svg2"
   version="1.1"><metadata
     id="metadata8"><rdf:RDF><cc:Work
         rdf:about=""><dc:format>image/svg+xml</dc:format><dc:type
           rdf:resource="http://purl.org/dc/dcmitype/StillImage" /></cc:Work></rdf:RDF></metadata><defs
     id="defs6"><clipPath
       id="clipPath18"
       clipPathUnits="userSpaceOnUse"><path
         id="path16"
         d="M 0,23.2 H 23.585 V 0 H 0 Z" /></clipPath></defs><g
     transform="matrix(1.3333333,0,0,-1.3333333,0,30.933867)"
     id="g10"><g
       id="g12"><g
         clip-path="url(#clipPath18)"
         id="g14"><g
           transform="translate(6.4012,15.6236)"
           id="g20"><path
             id="path22"
             style="fill:#878787;fill-opacity:1;fill-rule:nonzero;stroke:none"
             d="M 0,0 H 10.743 C 10.75,0.045 10.764,0.074 10.757,0.097 10.328,1.704 9.901,3.312 9.456,4.915 9.432,5.002 9.245,5.099 9.133,5.1 6.641,5.11 4.147,5.105 1.654,5.111 1.444,5.112 1.353,5.049 1.3,4.838 1.103,4.051 0.881,3.27 0.669,2.486 0.448,1.667 0.228,0.846 0,0 m 12.87,-13.137 c 0.553,3.536 1.106,7.07 1.66,10.619 H -3.741 c 0.556,-3.559 1.108,-7.083 1.661,-10.619 z M -2.56,-0.019 c 0.576,2.129 1.144,4.223 1.707,6.319 0.278,1.032 0.591,1.277 1.665,1.277 3.109,0 6.217,0 9.327,-0.001 0.851,0 1.236,-0.292 1.462,-1.122 0.547,-2.018 1.091,-4.037 1.636,-6.057 0.035,-0.127 0.074,-0.254 0.119,-0.416 0.787,0 1.572,0 2.357,0 1.104,-0.001 1.605,-0.561 1.44,-1.638 -0.317,-2.082 -0.646,-4.162 -0.971,-6.243 -0.338,-2.16 -0.681,-4.318 -1.015,-6.478 -0.132,-0.849 -0.565,-1.244 -1.428,-1.245 -5.577,-0.002 -11.155,-0.001 -16.732,0.002 -0.808,0 -1.26,0.411 -1.383,1.203 -0.653,4.201 -1.311,8.401 -1.969,12.602 -0.073,0.468 -0.131,0.931 0.203,1.336 0.265,0.319 0.605,0.465 1.018,0.462 0.84,-0.004 1.68,-0.001 2.564,-0.001" /></g><g
           transform="translate(6.5096,8.0787)"
           id="g24"><path
             id="path26"
             style="fill:#878787;fill-opacity:1;fill-rule:nonzero;stroke:none"
             d="M 0,0 C 0,0.986 -0.003,1.972 0.001,2.958 0.004,3.74 0.521,4.299 1.229,4.297 1.941,4.294 2.461,3.741 2.463,2.955 2.47,0.983 2.47,-0.99 2.465,-2.962 2.463,-3.764 1.926,-4.334 1.206,-4.32 0.496,-4.306 0.003,-3.753 0.001,-2.959 -0.002,-1.973 0,-0.986 0,0" /></g><g
           transform="translate(17.0848,8.0792)"
           id="g28"><path
             id="path30"
             style="fill:#878787;fill-opacity:1;fill-rule:nonzero;stroke:none"
             d="m 0,0 c 0,-0.986 0.002,-1.973 -0.001,-2.958 -0.002,-0.791 -0.498,-1.347 -1.208,-1.362 -0.719,-0.016 -1.255,0.552 -1.257,1.358 -0.006,1.972 -0.006,3.944 0.001,5.917 0.002,0.787 0.522,1.339 1.233,1.341 0.708,0.002 1.226,-0.557 1.229,-1.338 C 0.001,1.972 -0.002,0.986 -0.002,0 Z" /></g><g
           transform="translate(10.5711,8.0924)"
           id="g32"><path
             id="path34"
             style="fill:#878787;fill-opacity:1;fill-rule:nonzero;stroke:none"
             d="M 0,0 C 0,0.986 -0.004,1.972 0.002,2.958 0.006,3.723 0.506,4.27 1.2,4.285 1.91,4.3 2.444,3.748 2.446,2.966 2.453,0.968 2.453,-1.031 2.446,-3.029 2.443,-3.797 1.933,-4.33 1.229,-4.333 0.513,-4.335 0.004,-3.787 0.001,-2.998 -0.004,-1.999 0,-0.999 0,0" /></g></g></g></g></svg>