<?xml version="1.0" encoding="UTF-8" standalone="no"?>
<svg
   xmlns:dc="http://purl.org/dc/elements/1.1/"
   xmlns:cc="http://creativecommons.org/ns#"
   xmlns:rdf="http://www.w3.org/1999/02/22-rdf-syntax-ns#"
   xmlns:svg="http://www.w3.org/2000/svg"
   xmlns="http://www.w3.org/2000/svg"
   viewBox="0 0 600.47198 600.47998"
   height="600.47998"
   width="600.47198"
   xml:space="preserve"
   id="svg2"
   version="1.1"><metadata
     id="metadata8"><rdf:RDF><cc:Work
         rdf:about=""><dc:format>image/svg+xml</dc:format><dc:type
           rdf:resource="http://purl.org/dc/dcmitype/StillImage" /></cc:Work></rdf:RDF></metadata><defs
     id="defs6"><clipPath
       id="clipPath18"
       clipPathUnits="userSpaceOnUse"><path
         id="path16"
         d="M 0,450.36 H 450.354 V 0 H 0 Z" /></clipPath></defs><g
     transform="matrix(1.3333333,0,0,-1.3333333,0,600.48)"
     id="g10"><g
       id="g12"><g
         clip-path="url(#clipPath18)"
         id="g14"><g
           transform="translate(225.1925,210.8566)"
           id="g20"><path
             id="path22"
             style="fill:#56497c;fill-opacity:1;fill-rule:nonzero;stroke:none"
             d="m 0,0 c 13.894,-13.956 27.272,-27.415 40.674,-40.851 11.18,-11.209 22.347,-22.43 33.608,-33.558 3.808,-3.763 8.731,-4.379 12.788,-1.998 3.944,2.313 6.199,7.352 4.566,11.628 -0.91,2.382 -2.669,4.6 -4.498,6.445 -16.312,16.447 -32.708,32.811 -49.115,49.163 -7.756,7.733 -15.589,15.389 -23.532,23.223 1.36,1.468 2.215,2.455 3.136,3.378 17.43,17.45 34.866,34.893 52.304,52.336 6.244,6.246 12.558,12.423 18.721,18.749 4.406,4.521 4.58,10.691 0.663,14.783 -4.076,4.259 -10.336,4.154 -15.16,-0.277 -0.981,-0.901 -1.89,-1.88 -2.833,-2.822 C 48.925,77.817 26.529,55.434 4.125,33.06 2.773,31.71 1.351,30.432 -0.488,28.696 c -1.588,1.861 -2.69,3.345 -3.983,4.639 -22.732,22.753 -45.455,45.516 -68.298,68.158 -2.04,2.022 -4.708,3.967 -7.41,4.642 -4.642,1.161 -8.492,-0.912 -10.821,-5.223 -2.319,-4.296 -1.305,-8.768 2.959,-13.04 23.192,-23.236 46.409,-46.447 69.612,-69.673 1.248,-1.25 2.446,-2.552 3.72,-3.885 -1.064,-1.118 -1.734,-1.852 -2.437,-2.554 -23.683,-23.688 -47.39,-47.353 -71.041,-71.073 -4.958,-4.973 -5.236,-11.206 -0.953,-15.5 4.251,-4.261 10.46,-3.894 15.483,1.028 4.881,4.781 9.679,9.646 14.505,14.483 C -39.623,-39.727 -20.097,-20.148 0,0 M -225.192,14.237 C -225.294,138.646 -124.257,239.659 0.125,239.503 124.478,239.346 225.02,138.793 225.161,14.442 225.303,-109.782 124.043,-211.029 -0.167,-210.856 -124.4,-210.684 -225.091,-109.963 -225.192,14.237" /></g></g></g></g></svg>