<?xml version="1.0" encoding="UTF-8" standalone="no"?>
<svg
   xmlns:dc="http://purl.org/dc/elements/1.1/"
   xmlns:cc="http://creativecommons.org/ns#"
   xmlns:rdf="http://www.w3.org/1999/02/22-rdf-syntax-ns#"
   xmlns:svg="http://www.w3.org/2000/svg"
   xmlns="http://www.w3.org/2000/svg"
   viewBox="0 0 41.273468 35.384933"
   height="35.384933"
   width="41.273468"
   xml:space="preserve"
   id="svg2"
   version="1.1"><metadata
     id="metadata8"><rdf:RDF><cc:Work
         rdf:about=""><dc:format>image/svg+xml</dc:format><dc:type
           rdf:resource="http://purl.org/dc/dcmitype/StillImage" /></cc:Work></rdf:RDF></metadata><defs
     id="defs6"><clipPath
       id="clipPath18"
       clipPathUnits="userSpaceOnUse"><path
         id="path16"
         d="M 0,26.539 H 30.955 V 0 H 0 Z" /></clipPath></defs><g
     transform="matrix(1.3333333,0,0,-1.3333333,0,35.384933)"
     id="g10"><g
       id="g12"><g
         clip-path="url(#clipPath18)"
         id="g14"><g
           transform="translate(6.835,3.3054)"
           id="g20"><path
             id="path22"
             style="fill:#ffffff;fill-opacity:1;fill-rule:nonzero;stroke:none"
             d="m 0,0 c 0.054,0.021 0.107,0.04 0.16,0.063 1.688,0.729 3.237,1.686 4.58,2.936 0.501,0.465 0.977,0.561 1.616,0.48 2.714,-0.344 5.387,-0.128 7.994,0.732 2.151,0.711 4.099,1.762 5.661,3.45 2.43,2.628 2.533,5.974 0.245,8.722 -1.198,1.441 -2.714,2.462 -4.428,3.17 -4.781,1.976 -9.583,1.981 -14.362,10e-4 -2.017,-0.835 -3.758,-2.07 -4.992,-3.914 -1.068,-1.594 -1.383,-3.328 -0.835,-5.184 0.442,-1.499 1.338,-2.72 2.55,-3.661 C -0.846,6.046 0.223,5.425 1.267,4.784 1.541,4.615 1.579,4.479 1.496,4.194 1.081,2.776 0.726,1.337 0,0 m -6.835,12.857 c 0.11,0.54 0.184,1.091 0.337,1.619 0.529,1.835 1.611,3.321 3.017,4.579 2.195,1.965 4.803,3.112 7.657,3.701 3.803,0.785 7.57,0.624 11.26,-0.645 2.256,-0.777 4.293,-1.93 5.962,-3.667 1.259,-1.309 2.185,-2.809 2.546,-4.614 C 24.376,11.679 24.011,9.661 22.872,7.794 21.487,5.524 19.463,3.991 17.084,2.886 14.021,1.463 10.783,0.992 7.435,1.141 7.163,1.153 6.887,1.158 6.622,1.211 6.285,1.28 6.041,1.185 5.78,0.962 3.311,-1.152 0.445,-2.461 -2.718,-3.146 c -0.324,-0.07 -0.656,-0.103 -0.985,-0.149 -0.346,-0.049 -0.612,0.083 -0.792,0.377 -0.181,0.296 -0.176,0.605 0.033,0.876 0.245,0.319 0.529,0.608 0.783,0.92 0.526,0.648 1.123,1.256 1.542,1.968 0.445,0.755 0.713,1.612 1.067,2.422 0.085,0.193 0.016,0.284 -0.15,0.38 -1.156,0.673 -2.205,1.484 -3.103,2.479 -1.343,1.486 -2.265,3.173 -2.462,5.202 -0.005,0.046 -0.033,0.091 -0.05,0.137 z" /></g></g></g></g></svg>